<?xml version="1.0" encoding="UTF-8" standalone="no"?>
<svg
   xmlns:dc="http://purl.org/dc/elements/1.1/"
   xmlns:cc="http://creativecommons.org/ns#"
   xmlns:rdf="http://www.w3.org/1999/02/22-rdf-syntax-ns#"
   xmlns:svg="http://www.w3.org/2000/svg"
   xmlns="http://www.w3.org/2000/svg"
   xmlns:sodipodi="http://sodipodi.sourceforge.net/DTD/sodipodi-0.dtd"
   xmlns:inkscape="http://www.inkscape.org/namespaces/inkscape"
   inkscape:version="1.0 (4035a4fb49, 2020-05-01)"
   sodipodi:docname="fuel.svg"
   xml:space="preserve"
   style="enable-background:new 0 0 384 384;"
   viewBox="0 0 384 384"
   y="0px"
   x="0px"
   id="Capa_1"
   version="1.1"><metadata
   id="metadata43"><rdf:RDF><cc:Work
       rdf:about=""><dc:format>image/svg+xml</dc:format><dc:type
         rdf:resource="http://purl.org/dc/dcmitype/StillImage" /></cc:Work></rdf:RDF></metadata><defs
   id="defs41" /><sodipodi:namedview
   inkscape:current-layer="Capa_1"
   inkscape:window-maximized="1"
   inkscape:window-y="-8"
   inkscape:window-x="-8"
   inkscape:cy="192"
   inkscape:cx="192"
   inkscape:zoom="0.65312309"
   showgrid="false"
   id="namedview39"
   inkscape:window-height="705"
   inkscape:window-width="1366"
   inkscape:pageshadow="2"
   inkscape:pageopacity="0"
   guidetolerance="10"
   gridtolerance="10"
   objecttolerance="10"
   borderopacity="1"
   bordercolor="#666666"
   pagecolor="#ffffff" />
<g
   style="fill:#28a745;fill-opacity:1;stroke:#28a745;stroke-opacity:1"
   id="g6">
	<g
   style="fill:#28a745;fill-opacity:1;stroke:#28a745;stroke-opacity:1"
   id="g4">
		<path
   style="fill:#28a745;fill-opacity:1;stroke:#28a745;stroke-opacity:1"
   id="path2"
   d="m 352.427,90.24 0.32,-0.32 L 273.28,10.667 250.667,33.28 295.68,78.293 c -20.053,7.68 -34.347,26.987 -34.347,49.707 0,29.44 23.893,53.333 53.333,53.333 7.573,0 14.827,-1.6 21.333,-4.48 V 330.666 C 336,342.4 326.4,352 314.667,352 c -11.733,0 -21.333,-9.6 -21.333,-21.333 v -96 C 293.334,211.094 274.241,192 250.667,192 H 229.334 V 42.667 C 229.333,19.093 210.24,0 186.667,0 h -128 C 35.093,0 16,19.093 16,42.667 V 384 H 229.333 V 224 h 32 v 106.667 c 0,29.44 23.893,53.333 53.333,53.333 29.44,0 53.333,-23.893 53.333,-53.333 V 128 C 368,113.28 362.027,99.947 352.427,90.24 Z m -165.76,59.093 h -128 V 42.667 h 128 z m 128,0 c -11.733,0 -21.333,-9.6 -21.333,-21.333 0,-11.733 9.6,-21.333 21.333,-21.333 11.733,0 21.333,9.6 21.333,21.333 0,11.733 -9.6,21.333 -21.333,21.333 z" />
	</g>
</g>
<g
   id="g8">
</g>
<g
   id="g10">
</g>
<g
   id="g12">
</g>
<g
   id="g14">
</g>
<g
   id="g16">
</g>
<g
   id="g18">
</g>
<g
   id="g20">
</g>
<g
   id="g22">
</g>
<g
   id="g24">
</g>
<g
   id="g26">
</g>
<g
   id="g28">
</g>
<g
   id="g30">
</g>
<g
   id="g32">
</g>
<g
   id="g34">
</g>
<g
   id="g36">
</g>
</svg>
